# xmcd
#
# Track frame offsets:
#	150
#	31736
#	61778
#	79989
#	100703
#	101168
#	131509
#	172725
#	222857
#	247343
#	267415
#	295524
#
# Disc length: 4458 seconds
#
# Revision: 1
# Processed by: cddbd v1.4PL0 Copyright (c) Steve Scherf et al.
# Submitted via: audiograbber 1.82.01
#
DISCID=a211680c
DTITLE=David Lindley and Hani Naser - Live in Tokyo (Official Bootleg)
DYEAR=1900
DGENRE=Blues
TTITLE0=Bon Ton Roulie
TTITLE1=Ain't No Way
TTITLE2=Her Mind Is Gone
TTITLE3=She Took Off My Romeos - Pretty Rules The World
TTITLE4=She Took Off My Romeos - Pretty Rules The World
TTITLE5=Play it All Night Long
TTITLE6=Cottonmill Blues
TTITLE7=Rag Bag
TTITLE8=Way Out West In Kansas
TTITLE9=Tiki Torches At Twilight
TTITLE10=Mercury Blues
TTITLE11=Your Old Lady
EXTD=
EXTT0=
EXTT1=
EXTT2=
EXTT3=
EXTT4=
EXTT5=
EXTT6=
EXTT7=
EXTT8=
EXTT9=
EXTT10=
EXTT11=
PLAYORDER=
